# File created by Blade
# Date/Time:  Tue Apr 07 20:41:02 2015
# Frame Rate: 120.000 fps
#------------------------------------------------------
:FULLY-SPECIFIED
:DEGREES
456
root 3.584926 32.705165 -3.765643 9.105016 0.576587 -13.469855
Spine 30.412757 13.043150 22.413201
Head -35.727729 -11.431389 5.798561
LeftShoulder -17.877001 40.348168 12.217487
LeftArm 51.668401 -11.032728 -82.421322
LeftForeArm 4.549156 0.000000 27.470205
LeftHand 6.611161 -0.000000 11.339482
LeftHandThumb1 -26.253704 0.000000 33.147579
RightShoulder 11.823718 12.966769 -14.341646
RightArm 27.541327 12.995493 99.847562
RightForeArm 72.508315 0.000000 -4.855425
RightHand 8.267919 -0.000000 -8.051037
RightHandThumb1 -24.326973 -0.000000 -32.862282
LeftUpLeg -26.290065 1.429633 4.691876
LeftLeg 23.920998 -0.000000 -0.000000
LeftFoot -5.625638 20.065895 -1.167342
LeftToeBase -11.872576 -0.000000 0.000000
RightUpLeg -101.461961 -25.323931 26.126604
RightLeg 100.403263 -0.000000 -0.000000
RightFoot 34.464135 -2.098885 9.684174
RightToeBase 14.974621 -0.000000 -0.000000
457
root 3.586643 32.695627 -3.805144 8.936577 0.528171 -13.568050
Spine 31.189797 13.163802 22.832906
Head -36.443108 -11.411084 5.975946
LeftShoulder -18.082996 40.355995 11.960017
LeftArm 51.781680 -11.005824 -82.343867
LeftForeArm 4.677512 -0.000000 27.756827
LeftHand 6.540956 -0.000000 11.639941
LeftHandThumb1 -26.253704 0.000000 33.147579
RightShoulder 11.968304 12.910450 -14.337685
RightArm 27.531133 13.828524 99.443960
RightForeArm 73.216734 -0.000000 -5.166803
RightHand 8.046694 -0.000000 -6.992550
RightHandThumb1 -24.326973 -0.000000 -32.862282
LeftUpLeg -25.971163 1.636601 4.704861
LeftLeg 23.512712 -0.000000 -0.000000
LeftFoot -5.797735 20.140984 -1.139006
LeftToeBase -11.591616 -0.000000 0.000000
RightUpLeg -103.046055 -25.203143 26.716420
RightLeg 100.998244 -0.000000 -0.000000
RightFoot 35.073860 -1.969603 9.969660
RightToeBase 15.272181 -0.000000 -0.000000
458
root 3.576885 32.681589 -3.849802 8.847393 0.495814 -13.778037
Spine 31.856049 13.328990 23.342470
Head -37.101106 -11.390605 6.156354
LeftShoulder -18.257629 40.354313 11.743319
LeftArm 51.865124 -10.990264 -82.241924
LeftForeArm 4.798707 -0.000000 28.042395
LeftHand 6.507372 -0.000000 11.283142
LeftHandThumb1 -26.253704 0.000000 33.147579
RightShoulder 12.070397 12.914741 -14.333626
RightArm 27.333814 15.152924 99.196060
RightForeArm 75.462833 0.000000 -5.420465
RightHand 8.222862 0.000000 -4.714656
RightHandThumb1 -24.326973 -0.000000 -32.862282
LeftUpLeg -25.770541 1.664842 4.931986
LeftLeg 23.184437 -0.000000 -0.000000
LeftFoot -6.093847 20.217070 -1.249899
LeftToeBase -11.242012 -0.000000 0.000000
RightUpLeg -104.739701 -25.037822 27.586708
RightLeg 101.570469 -0.000000 -0.000000
RightFoot 35.717797 -1.965375 10.133495
RightToeBase 15.286899 -0.000000 -0.000000
459
root 3.571392 32.656970 -3.892935 8.777416 0.478547 -13.871507
Spine 32.448033 13.345664 23.630561
Head -37.721010 -11.233997 6.329868
LeftShoulder -18.634618 40.303263 11.413586
LeftArm 51.865968 -10.978593 -82.081716
LeftForeArm 4.848372 -0.000000 28.396647
LeftHand 6.381187 -0.000000 11.301597
LeftHandThumb1 -26.253704 0.000000 33.147579
RightShoulder 12.258133 12.940270 -14.277128
RightArm 27.277513 15.825288 98.824353
RightForeArm 75.758219 -0.000000 -5.515023
RightHand 8.563515 -0.000000 -5.392876
RightHandThumb1 -24.326973 -0.000000 -32.862282
LeftUpLeg -25.655788 1.639899 5.043822
LeftLeg 22.984743 -0.000000 -0.000000
LeftFoot -6.340813 20.281296 -1.296552
LeftToeBase -11.106814 -0.000000 0.000000
RightUpLeg -106.414027 -24.820622 28.238277
RightLeg 102.199359 -0.000000 -0.000000
RightFoot 36.137690 -2.026252 10.381860
RightToeBase 15.359649 -0.000000 -0.000000
460
root 3.565237 32.625556 -3.940641 8.790140 0.428207 -13.919891
Spine 32.940996 13.511981 23.848853
Head -38.325984 -11.138133 6.610854
LeftShoulder -18.861827 40.247475 11.219235
LeftArm 51.796625 -10.976543 -81.906493
LeftForeArm 4.914828 -0.000000 28.820396
LeftHand 6.470025 -0.000000 11.452871
LeftHandThumb1 -26.253704 0.000000 33.147579
RightShoulder 12.337288 12.952534 -14.210729
RightArm 27.115584 16.583303 98.355082
RightForeArm 76.020669 -0.000000 -5.793011
RightHand 8.804140 0.000000 -5.266067
RightHandThumb1 -24.326973 -0.000000 -32.862282
LeftUpLeg -25.701868 1.637696 5.106313
LeftLeg 22.933425 -0.000000 -0.000000
LeftFoot -6.654462 20.331448 -1.403323
LeftToeBase -10.936201 -0.000000 0.000000
RightUpLeg -108.059658 -24.490786 28.713707
RightLeg 102.810252 -0.000000 -0.000000
RightFoot 36.421542 -2.098493 10.862882
RightToeBase 15.837765 -0.000000 -0.000000
461
root 3.561011 32.589945 -3.984274 8.770766 0.396306 -13.912616
Spine 33.441801 13.657526 24.015305
Head -38.928737 -11.068717 6.914242
LeftShoulder -19.092475 40.201250 11.033083
LeftArm 51.779523 -11.004809 -81.801245
LeftForeArm 5.065759 -0.000000 29.231377
LeftHand 6.526861 -0.000000 11.477626
LeftHandThumb1 -26.253704 0.000000 33.147579
RightShoulder 12.374125 12.873990 -14.134184
RightArm 27.022253 17.436206 97.897330
RightForeArm 77.536340 -0.000000 -6.273357
RightHand 8.637865 -0.000000 -2.331851
RightHandThumb1 -24.326973 -0.000000 -32.862282
LeftUpLeg -25.734068 1.541462 5.127105
LeftLeg 22.910742 -0.000000 -0.000000
LeftFoot -7.007502 20.461958 -1.620862
LeftToeBase -10.705363 -0.000000 0.000000
RightUpLeg -109.755616 -24.256266 29.250653
RightLeg 103.448584 -0.000000 -0.000000
RightFoot 37.012703 -1.700887 10.698651
RightToeBase 15.038545 -0.000000 -0.000000
